<svg width="56" height="56" viewBox="0 0 56 56" fill="none" xmlns="http://www.w3.org/2000/svg">
<g clip-path="url(#clip0_2147_585)">
<mask id="mask0_2147_585" style="mask-type:luminance" maskUnits="userSpaceOnUse" x="0" y="0" width="56" height="56">
<path d="M54.6504 54.6504V1.34961H1.34961V54.6504H54.6504Z" fill="white" stroke="white" stroke-width="2.7"/>
</mask>
<g mask="url(#mask0_2147_585)">
<path d="M54.3594 45.0156H1.64062V4.42263H54.3594V45.0156Z" stroke="#3CC4E5" stroke-width="2.7" stroke-miterlimit="10" stroke-linecap="round" stroke-linejoin="round"/>
<path d="M54.3594 35.1719H1.64062" stroke="#3CC4E5" stroke-width="2.7" stroke-miterlimit="10" stroke-linecap="round" stroke-linejoin="round"/>
<path d="M42.4073 15.1922L41.2344 16.3666L40.0615 15.1922C38.8286 13.9577 36.8296 13.9577 35.5965 15.1922C34.3637 16.4268 34.3637 18.4283 35.5965 19.6629L41.2142 25.3281L41.2344 25.3079L46.8722 19.6629C48.1052 18.4283 48.1052 16.4268 46.8722 15.1922C45.6393 13.9577 43.6402 13.9577 42.4073 15.1922Z" stroke="#3CC4E5" stroke-width="2.7" stroke-miterlimit="10" stroke-linecap="round" stroke-linejoin="round"/>
<path d="M17.3637 45.0156V51.5781H7.6543V45.0156" stroke="#3CC4E5" stroke-width="2.7" stroke-miterlimit="10" stroke-linecap="round" stroke-linejoin="round"/>
<path d="M48.3442 45.0156V51.5781H38.6348V45.0156" stroke="#3CC4E5" stroke-width="2.7" stroke-miterlimit="10" stroke-linecap="round" stroke-linejoin="round"/>
<path d="M28 4.92461V34.6992" stroke="#3CC4E5" stroke-width="2.7" stroke-miterlimit="10" stroke-linecap="round" stroke-linejoin="round"/>
<path d="M1.64062 19.7995H7.20081L11.4845 10.5014L16.8152 30.0156L20.1469 21.3532H28" stroke="#3CC4E5" stroke-width="2.7" stroke-miterlimit="10" stroke-linecap="round" stroke-linejoin="round"/>
<path d="M32.123 40.0938H38.1348" stroke="#3CC4E5" stroke-width="2.7" stroke-miterlimit="10" stroke-linecap="round" stroke-linejoin="round"/>
<path d="M43.5323 40.0938H43.5312" stroke="#3CC4E5" stroke-width="2.7" stroke-miterlimit="10" stroke-linecap="round" stroke-linejoin="round"/>
<path d="M49.0011 40.0938H49" stroke="#3CC4E5" stroke-width="2.7" stroke-miterlimit="10" stroke-linecap="round" stroke-linejoin="round"/>
<path d="M54.3594 35.1719V45.0156" stroke="#3CC4E5" stroke-width="2.7" stroke-miterlimit="10" stroke-linecap="round" stroke-linejoin="round"/>
</g>
</g>
<defs>
<clipPath id="clip0_2147_585">
<rect width="56" height="56" fill="white"/>
</clipPath>
</defs>
</svg>
