<svg width="56" height="56" viewBox="0 0 56 56" fill="none" xmlns="http://www.w3.org/2000/svg">
<g clip-path="url(#clip0_1363_956)">
<mask id="mask0_1363_956" style="mask-type:luminance" maskUnits="userSpaceOnUse" x="0" y="0" width="56" height="56">
<path d="M0 3.8147e-06H56V56H0V3.8147e-06Z" fill="white"/>
</mask>
<g mask="url(#mask0_1363_956)">
<path d="M49.9844 54.3594H6.01562C3.59931 54.3594 1.64062 52.4006 1.64062 49.9844V6.01563C1.64062 3.59943 3.59931 1.64063 6.01562 1.64063H41.5004C42.6606 1.64063 43.7734 2.10154 44.5939 2.92207L53.0779 11.4061C53.8985 12.2266 54.3594 13.3394 54.3594 14.4996V49.9844C54.3594 52.4006 52.4007 54.3594 49.9844 54.3594Z" stroke="#3CC4E5" stroke-width="2.7" stroke-miterlimit="10" stroke-linecap="round" stroke-linejoin="round"/>
<path d="M8.3125 47.6875V8.3125H40.5941L47.6875 15.4059V47.6875H8.3125Z" stroke="#3CC4E5" stroke-width="2.7" stroke-miterlimit="10" stroke-linecap="round" stroke-linejoin="round"/>
<path d="M37.8438 37.8438H18.1562V18.1562H37.8438V37.8438Z" stroke="#3CC4E5" stroke-width="2.7" stroke-miterlimit="10" stroke-linecap="round" stroke-linejoin="round"/>
<path d="M37.8438 28H41.125" stroke="#3CC4E5" stroke-width="2.7" stroke-miterlimit="10" stroke-linecap="round" stroke-linejoin="round"/>
<path d="M37.8438 21.4375H41.125" stroke="#3CC4E5" stroke-width="2.7" stroke-miterlimit="10" stroke-linecap="round" stroke-linejoin="round"/>
<path d="M37.8438 34.5625H41.125" stroke="#3CC4E5" stroke-width="2.7" stroke-miterlimit="10" stroke-linecap="round" stroke-linejoin="round"/>
<path d="M14.875 28H18.1562" stroke="#3CC4E5" stroke-width="2.7" stroke-miterlimit="10" stroke-linecap="round" stroke-linejoin="round"/>
<path d="M14.875 21.4375H18.1562" stroke="#3CC4E5" stroke-width="2.7" stroke-miterlimit="10" stroke-linecap="round" stroke-linejoin="round"/>
<path d="M14.875 34.5625H18.1562" stroke="#3CC4E5" stroke-width="2.7" stroke-miterlimit="10" stroke-linecap="round" stroke-linejoin="round"/>
<path d="M28 18.1562V14.875" stroke="#3CC4E5" stroke-width="2.7" stroke-miterlimit="10" stroke-linecap="round" stroke-linejoin="round"/>
<path d="M21.4375 18.1562V14.875" stroke="#3CC4E5" stroke-width="2.7" stroke-miterlimit="10" stroke-linecap="round" stroke-linejoin="round"/>
<path d="M34.5625 18.1562V14.875" stroke="#3CC4E5" stroke-width="2.7" stroke-miterlimit="10" stroke-linecap="round" stroke-linejoin="round"/>
<path d="M28 41.125V37.8438" stroke="#3CC4E5" stroke-width="2.7" stroke-miterlimit="10" stroke-linecap="round" stroke-linejoin="round"/>
<path d="M21.4375 41.125V37.8438" stroke="#3CC4E5" stroke-width="2.7" stroke-miterlimit="10" stroke-linecap="round" stroke-linejoin="round"/>
<path d="M34.5625 41.125V37.8438" stroke="#3CC4E5" stroke-width="2.7" stroke-miterlimit="10" stroke-linecap="round" stroke-linejoin="round"/>
<path d="M24.7188 24.7188H29.0938" stroke="#3CC4E5" stroke-width="2.7" stroke-miterlimit="10" stroke-linecap="round" stroke-linejoin="round"/>
</g>
</g>
<defs>
<clipPath id="clip0_1363_956">
<rect width="56" height="56" fill="white"/>
</clipPath>
</defs>
</svg>
