<svg width="56" height="56" viewBox="0 0 56 56" fill="none" xmlns="http://www.w3.org/2000/svg">
<path d="M42.9872 40.5201L40.6086 42.8987L42.9872 45.2773" stroke="#3CC4E5" stroke-width="2.7" stroke-miterlimit="10" stroke-linecap="round" stroke-linejoin="round"/>
<path d="M10.8214 40.52L8.44275 42.8987L10.8214 45.2773" stroke="#3CC4E5" stroke-width="2.7" stroke-miterlimit="10" stroke-linecap="round" stroke-linejoin="round"/>
<path d="M33.9494 33.5547H21.989C20.3022 33.5547 18.9347 32.1872 18.9347 30.5004V25.5367C18.9347 23.8499 20.3022 22.4825 21.989 22.4825H33.9494C35.6363 22.4825 37.0037 23.8499 37.0037 25.5367V30.5004C37.0037 32.1872 35.6363 33.5547 33.9494 33.5547Z" stroke="#3CC4E5" stroke-width="2.7" stroke-miterlimit="10" stroke-linecap="round" stroke-linejoin="round"/>
<path d="M33.9494 48.4336H21.989C20.3022 48.4336 18.9347 47.0662 18.9347 45.3793V40.4156C18.9347 38.7288 20.3022 37.3613 21.989 37.3613H33.9494C35.6363 37.3613 37.0037 38.7288 37.0037 40.4156V45.3793C37.0037 47.0662 35.6363 48.4336 33.9494 48.4336Z" stroke="#3CC4E5" stroke-width="2.7" stroke-miterlimit="10" stroke-linecap="round" stroke-linejoin="round"/>
<path d="M24.2727 7.56836H21.9891C20.3022 7.56836 18.9347 8.9358 18.9347 10.6227V15.5863C18.9347 17.2732 20.3022 18.6406 21.9891 18.6406H33.9494C35.6363 18.6406 37.0038 17.2732 37.0038 15.5863V10.6227C37.0038 8.9358 35.6363 7.56836 33.9494 7.56836H31.8917" stroke="#3CC4E5" stroke-width="2.7" stroke-miterlimit="10" stroke-linecap="round" stroke-linejoin="round"/>
<path d="M40.6088 28.0151H43.3039C46.6008 28.0151 49.2735 30.6878 49.2735 33.9847V36.925C49.2735 40.2219 46.6008 42.8945 43.3039 42.8945H40.6088" stroke="#3CC4E5" stroke-width="2.7" stroke-miterlimit="10" stroke-linecap="round" stroke-linejoin="round"/>
<path d="M13.0138 25.7465L15.3923 28.1252L13.0138 30.5039" stroke="#3CC4E5" stroke-width="2.7" stroke-miterlimit="10" stroke-linecap="round" stroke-linejoin="round"/>
<path d="M15.3924 13.2495H12.6973C9.40028 13.2495 6.72766 15.9222 6.72766 19.219V22.1594C6.72766 25.4563 9.40028 28.1289 12.6973 28.1289H15.3924" stroke="#3CC4E5" stroke-width="2.7" stroke-miterlimit="10" stroke-linecap="round" stroke-linejoin="round"/>
<path d="M8.44275 42.8945H15.4093" stroke="#3CC4E5" stroke-width="2.7" stroke-miterlimit="10" stroke-linecap="round" stroke-linejoin="round"/>
<path d="M42.9705 10.274L40.5918 12.6526L42.9705 15.0312" stroke="#3CC4E5" stroke-width="2.7" stroke-miterlimit="10" stroke-linecap="round" stroke-linejoin="round"/>
<path d="M40.5918 12.6523H47.5584" stroke="#3CC4E5" stroke-width="2.7" stroke-miterlimit="10" stroke-linecap="round" stroke-linejoin="round"/>
<path d="M23.2202 13.1055H32.8178" stroke="#3CC4E5" stroke-width="2.7" stroke-miterlimit="10" stroke-linecap="round" stroke-linejoin="round"/>
<path d="M23.2202 28.0195H29.0286" stroke="#3CC4E5" stroke-width="2.7" stroke-miterlimit="10" stroke-linecap="round" stroke-linejoin="round"/>
<path d="M23.2202 42.9297H32.8178" stroke="#3CC4E5" stroke-width="2.7" stroke-miterlimit="10" stroke-linecap="round" stroke-linejoin="round"/>
</svg>
