<svg width="56" height="56" viewBox="0 0 56 56" fill="none" xmlns="http://www.w3.org/2000/svg">
<g clip-path="url(#clip0_1379_1693)">
<mask id="mask0_1379_1693" style="mask-type:luminance" maskUnits="userSpaceOnUse" x="0" y="0" width="56" height="56">
<path d="M0 3.8147e-06H56V56H0V3.8147e-06Z" fill="white"/>
</mask>
<g mask="url(#mask0_1379_1693)">
<path d="M39.1838 41.9519C37.4316 41.9519 36.0097 40.5312 36.0097 38.7778C36.0097 37.0245 37.4316 35.6039 39.1838 35.6039C40.9371 35.6039 42.3578 37.0245 42.3578 38.7778C42.3578 40.5312 40.9371 41.9519 39.1838 41.9519ZM46.9188 39.8562C46.3303 39.2581 46.3303 38.2977 46.9188 37.6995L48.3297 36.2656C48.8143 35.7722 48.9105 35.0164 48.5649 34.4182L47.6505 32.8334C47.3049 32.235 46.6016 31.9409 45.9322 32.1137L43.9853 32.6189C43.1727 32.8289 42.3414 32.3488 42.1172 31.5406L41.5813 29.6013C41.3964 28.9352 40.7904 28.4737 40.0993 28.4737H38.2694C37.5782 28.4737 36.9711 28.9352 36.7874 29.6013L36.2503 31.5406C36.0272 32.3488 35.1949 32.8289 34.3822 32.6189L32.4353 32.1137C31.766 31.9409 31.0638 32.235 30.7182 32.8334L29.8027 34.4182C29.4571 35.0164 29.5533 35.7722 30.0389 36.2656L31.4488 37.6995C32.0383 38.2977 32.0383 39.2581 31.4488 39.8562L30.0389 41.2902C29.5533 41.7835 29.4571 42.5393 29.8027 43.1375L30.7182 44.7223C31.0638 45.3207 31.766 45.6148 32.4353 45.442L34.3822 44.9368C35.1949 44.7268 36.0272 45.207 36.2503 46.0152L36.7874 47.9545C36.9711 48.6206 37.5782 49.082 38.2694 49.082H40.0993C40.7904 49.082 41.3964 48.6206 41.5813 47.9545L42.1172 46.0152C42.3414 45.207 43.1727 44.7268 43.9853 44.9368L45.9322 45.442C46.6016 45.6148 47.3049 45.3207 47.6505 44.7223L48.5649 43.1375C48.9105 42.5393 48.8143 41.7835 48.3297 41.2902L46.9188 39.8562Z" stroke="#3CC4E5" stroke-width="2.7" stroke-miterlimit="10" stroke-linecap="round" stroke-linejoin="round"/>
<path d="M23.853 42.252C23.2358 39.5435 23.3301 36.6375 24.2718 33.8108C27.0156 25.5748 35.9162 21.1226 44.1523 23.8663C46.9789 24.8081 49.3609 26.4754 51.1585 28.5925" stroke="#3CC4E5" stroke-width="2.7" stroke-miterlimit="10" stroke-linecap="round" stroke-linejoin="round"/>
<path d="M54.5151 35.3043C55.1323 38.0128 55.0379 40.9188 54.0963 43.7455C51.3529 51.9805 42.4518 56.4338 34.2158 53.6901C31.3892 52.7483 29.0071 51.0809 27.21 48.9628" stroke="#3CC4E5" stroke-width="2.7" stroke-miterlimit="10" stroke-linecap="round" stroke-linejoin="round"/>
<path d="M47.4229 28.5893L51.1588 28.5918L51.1649 24.8546" stroke="#3CC4E5" stroke-width="2.7" stroke-miterlimit="10" stroke-linecap="round" stroke-linejoin="round"/>
<path d="M30.9463 48.9665L27.2102 48.9639L27.2041 52.7012" stroke="#3CC4E5" stroke-width="2.7" stroke-miterlimit="10" stroke-linecap="round" stroke-linejoin="round"/>
<path d="M1.09375 25.0549V35.3607C1.09375 37.313 2.60531 38.8945 4.46687 38.8945H23.4631C23.45 37.2103 23.7092 35.4964 24.2714 33.8098C26.4655 27.2243 32.5948 23.0581 39.1737 23.055V5.03105C39.1737 3.0786 37.6622 1.49704 35.8006 1.49704H4.46687C2.60531 1.49704 1.09375 3.0786 1.09375 5.03105V15.4386" stroke="#3CC4E5" stroke-width="2.7" stroke-miterlimit="10" stroke-linecap="round" stroke-linejoin="round"/>
<path d="M25.0222 1.49697H15.2461V9.97266H25.0222V1.49697Z" stroke="#3CC4E5" stroke-width="2.7" stroke-miterlimit="10" stroke-linecap="round" stroke-linejoin="round"/>
<path d="M6.30566 33.3438H12.7267" stroke="#3CC4E5" stroke-width="2.7" stroke-miterlimit="10" stroke-linecap="round" stroke-linejoin="round"/>
</g>
</g>
<defs>
<clipPath id="clip0_1379_1693">
<rect width="56" height="56" fill="white"/>
</clipPath>
</defs>
</svg>
