<svg width="56" height="56" viewBox="0 0 56 56" fill="none" xmlns="http://www.w3.org/2000/svg">
<path d="M46.5389 31.0696C40.5718 37.0367 30.8973 37.0367 24.9304 31.0696C18.9633 25.1026 18.9633 15.4281 24.9304 9.46112C30.8973 3.49407 40.5718 3.49407 46.5389 9.46112C52.5059 15.4281 52.5059 25.1026 46.5389 31.0696Z" stroke="#3CC4E5" stroke-width="2.7" stroke-miterlimit="10" stroke-linecap="round" stroke-linejoin="round"/>
<path d="M39.5527 20.8416L41.2639 22.5527L45.0453 22.0125" stroke="#3CC4E5" stroke-width="2.7" stroke-miterlimit="10" stroke-linecap="round" stroke-linejoin="round"/>
<path d="M33.9875 10.9527L33.4473 14.7342L35.1584 16.4453" stroke="#3CC4E5" stroke-width="2.7" stroke-miterlimit="10" stroke-linecap="round" stroke-linejoin="round"/>
<path d="M35.9922 25.3841L37.2118 26.6036L36.6716 29.3047" stroke="#3CC4E5" stroke-width="2.7" stroke-miterlimit="10" stroke-linecap="round" stroke-linejoin="round"/>
<path d="M26.6934 19.3265L29.3944 18.7863L30.6139 20.0059" stroke="#3CC4E5" stroke-width="2.7" stroke-miterlimit="10" stroke-linecap="round" stroke-linejoin="round"/>
<path d="M36.275 25.1271C34.4849 26.9172 31.526 26.8608 30.3327 25.6673C29.1392 24.4739 29.0828 21.5151 30.8729 19.725C32.663 17.9349 37.8957 13.7826 40.0565 15.9434C42.2174 18.1043 38.0651 23.337 36.275 25.1271Z" stroke="#3CC4E5" stroke-width="2.7" stroke-miterlimit="10" stroke-linecap="round" stroke-linejoin="round"/>
<path d="M37.9146 23.2539L32.7461 18.0854" stroke="#3CC4E5" stroke-width="2.7" stroke-miterlimit="10" stroke-linecap="round" stroke-linejoin="round"/>
<path d="M43.2979 15.9414H40.0566V12.7001" stroke="#3CC4E5" stroke-width="2.7" stroke-miterlimit="10" stroke-linecap="round" stroke-linejoin="round"/>
<path d="M24.9299 31.0701L20.3594 35.6406" stroke="#3CC4E5" stroke-width="2.7" stroke-miterlimit="10" stroke-linecap="round" stroke-linejoin="round"/>
<path d="M6.18348 49.8166C7.83921 51.4722 10.5531 51.4083 12.1256 49.6558L22.6513 37.9327L18.0674 33.3488L6.3443 43.8745C4.5966 45.4426 4.52316 48.1563 6.18348 49.8166Z" stroke="#3CC4E5" stroke-width="2.7" stroke-miterlimit="10" stroke-linecap="round" stroke-linejoin="round"/>
<path d="M13.6153 47.9941L8.00391 42.3827" stroke="#3CC4E5" stroke-width="2.7" stroke-miterlimit="10" stroke-linecap="round" stroke-linejoin="round"/>
<path d="M14.2476 20.3594H4.98438" stroke="#3CC4E5" stroke-width="2.7" stroke-miterlimit="10" stroke-linecap="round" stroke-linejoin="round"/>
<path d="M14.2479 26.472L9.66406 28" stroke="#3CC4E5" stroke-width="2.7" stroke-miterlimit="10" stroke-linecap="round" stroke-linejoin="round"/>
<path d="M14.2479 14.248L9.66406 12.7201" stroke="#3CC4E5" stroke-width="2.7" stroke-miterlimit="10" stroke-linecap="round" stroke-linejoin="round"/>
<path d="M35.6406 41.7524V51.0156" stroke="#3CC4E5" stroke-width="2.7" stroke-miterlimit="10" stroke-linecap="round" stroke-linejoin="round"/>
<path d="M41.752 41.7521L43.2799 46.3359" stroke="#3CC4E5" stroke-width="2.7" stroke-miterlimit="10" stroke-linecap="round" stroke-linejoin="round"/>
<path d="M29.528 41.7521L28 46.3359" stroke="#3CC4E5" stroke-width="2.7" stroke-miterlimit="10" stroke-linecap="round" stroke-linejoin="round"/>
</svg>
