<svg width="56" height="56" viewBox="0 0 56 56" fill="none" xmlns="http://www.w3.org/2000/svg">
<path d="M30.3013 25.6992L25.6992 30.3013" stroke="#127AFF" stroke-width="2.7" stroke-miterlimit="10" stroke-linecap="round" stroke-linejoin="round"/>
<path d="M30.3013 30.3013L25.6992 25.6992" stroke="#127AFF" stroke-width="2.7" stroke-miterlimit="10" stroke-linecap="round" stroke-linejoin="round"/>
<path d="M21.1399 39.3405C17.8995 37.5409 15.8867 35.2686 15.8867 31.5576V17.1417C22.3044 16.2883 25.8672 14.4666 27.8438 11.5H28.1562C30.1328 14.4665 33.6956 16.2882 40.1133 17.1417V31.5575C40.1133 35.2685 38.1005 37.5408 34.8601 39.3404L28.0001 43.1506L21.1399 39.3405Z" stroke="#127AFF" stroke-width="2.7" stroke-miterlimit="10" stroke-linecap="round" stroke-linejoin="round"/>
<path d="M48.8037 36.3705C49.2284 34.8476 49.4421 33.2414 49.4421 31.5602V8.98734L40.8271 7.30188C37.6885 6.68784 34.9259 4.84641 33.1542 2.1875H22.8464C21.0746 4.84652 18.3119 6.68795 15.1732 7.30198L6.55859 8.98734V31.5602C6.55859 35.3192 7.62686 38.7034 9.73375 41.6192C11.3971 43.921 13.645 45.8394 16.6058 47.4838L28.0004 53.8125L39.3945 47.484C40.5738 46.829 41.64 46.1305 42.6013 45.3818" stroke="#127AFF" stroke-width="2.7" stroke-miterlimit="10" stroke-linecap="round" stroke-linejoin="round"/>
</svg>
